<svg xmlns="http://www.w3.org/2000/svg" xmlns:xlink="http://www.w3.org/1999/xlink" width="500" zoomAndPan="magnify" viewBox="0 0 375 374.999991" height="500" preserveAspectRatio="xMidYMid meet" version="1.0"><defs><clipPath id="f47fc7f1f7"><path d="M 2.859375 2.859375 L 371.859375 2.859375 L 371.859375 371.859375 L 2.859375 371.859375 Z M 2.859375 2.859375 " clip-rule="nonzero"/></clipPath></defs><g clip-path="url(#f47fc7f1f7)"><path fill="currentColor" d="M 187.359375 2.859375 C 85.621094 2.859375 2.859375 85.621094 2.859375 187.359375 C 2.859375 244.738281 28.742188 297.714844 73.785156 332.664062 C 99.71875 353.066406 130.585938 366.058594 162.820312 370.171875 C 170.804688 371.304688 179.082031 371.859375 187.359375 371.859375 C 195.632812 371.859375 203.910156 371.304688 211.683594 370.195312 C 244.132812 366.058594 274.996094 353.089844 300.878906 332.71875 C 346 297.714844 371.859375 244.710938 371.859375 187.359375 C 371.859375 85.621094 289.070312 2.859375 187.359375 2.859375 Z M 292.785156 304.859375 L 292.785156 286.988281 C 292.785156 261.15625 245.605469 240.070312 187.359375 240.070312 C 129.109375 240.070312 81.929688 261.15625 81.929688 286.988281 L 81.929688 304.859375 C 48.429688 275.046875 29.214844 232.902344 29.214844 187.359375 C 29.214844 100.140625 100.140625 29.214844 187.359375 29.214844 C 274.574219 29.214844 345.5 100.140625 345.5 187.359375 C 345.5 232.875 326.3125 274.96875 292.785156 304.859375 Z M 292.785156 304.859375 " fill-opacity="1" fill-rule="nonzero"/></g><path fill="currentColor" d="M 253.25 147.820312 C 253.25 148.898438 253.222656 149.976562 253.171875 151.054688 C 253.117188 152.132812 253.039062 153.207031 252.933594 154.28125 C 252.828125 155.355469 252.695312 156.421875 252.539062 157.492188 C 252.378906 158.558594 252.195312 159.621094 251.984375 160.675781 C 251.773438 161.734375 251.539062 162.785156 251.277344 163.832031 C 251.015625 164.878906 250.726562 165.917969 250.414062 166.949219 C 250.101562 167.980469 249.761719 169.003906 249.398438 170.019531 C 249.035156 171.035156 248.648438 172.042969 248.234375 173.039062 C 247.820312 174.035156 247.386719 175.019531 246.925781 175.996094 C 246.464844 176.96875 245.976562 177.933594 245.46875 178.882812 C 244.960938 179.835938 244.429688 180.773438 243.875 181.699219 C 243.320312 182.621094 242.746094 183.535156 242.144531 184.429688 C 241.546875 185.328125 240.925781 186.207031 240.285156 187.074219 C 239.640625 187.941406 238.976562 188.789062 238.292969 189.625 C 237.609375 190.457031 236.90625 191.273438 236.179688 192.074219 C 235.457031 192.871094 234.714844 193.652344 233.949219 194.414062 C 233.1875 195.179688 232.40625 195.921875 231.609375 196.644531 C 230.808594 197.371094 229.992188 198.074219 229.160156 198.757812 C 228.324219 199.441406 227.476562 200.105469 226.609375 200.746094 C 225.742188 201.390625 224.863281 202.011719 223.964844 202.609375 C 223.070312 203.207031 222.160156 203.785156 221.234375 204.339844 C 220.308594 204.894531 219.371094 205.425781 218.417969 205.933594 C 217.46875 206.441406 216.503906 206.925781 215.53125 207.386719 C 214.554688 207.847656 213.570312 208.285156 212.574219 208.699219 C 211.578125 209.113281 210.570312 209.5 209.554688 209.863281 C 208.539062 210.226562 207.515625 210.5625 206.484375 210.878906 C 205.453125 211.191406 204.414062 211.476562 203.367188 211.738281 C 202.324219 212.003906 201.269531 212.238281 200.210938 212.449219 C 199.15625 212.660156 198.09375 212.84375 197.027344 213 C 195.960938 213.160156 194.890625 213.292969 193.816406 213.398438 C 192.742188 213.503906 191.667969 213.582031 190.589844 213.636719 C 189.515625 213.6875 188.4375 213.714844 187.359375 213.714844 C 186.28125 213.714844 185.203125 213.6875 184.125 213.636719 C 183.046875 213.582031 181.972656 213.503906 180.898438 213.398438 C 179.824219 213.292969 178.757812 213.160156 177.6875 213 C 176.621094 212.84375 175.558594 212.660156 174.503906 212.449219 C 173.445312 212.238281 172.394531 212.003906 171.347656 211.738281 C 170.300781 211.476562 169.261719 211.191406 168.230469 210.878906 C 167.199219 210.5625 166.175781 210.226562 165.160156 209.863281 C 164.144531 209.5 163.136719 209.113281 162.140625 208.699219 C 161.144531 208.285156 160.160156 207.847656 159.183594 207.386719 C 158.210938 206.925781 157.246094 206.441406 156.296875 205.933594 C 155.34375 205.425781 154.40625 204.894531 153.480469 204.339844 C 152.558594 203.785156 151.644531 203.210938 150.75 202.609375 C 149.851562 202.011719 148.972656 201.390625 148.105469 200.746094 C 147.238281 200.105469 146.390625 199.441406 145.554688 198.757812 C 144.722656 198.074219 143.90625 197.371094 143.105469 196.644531 C 142.308594 195.921875 141.527344 195.179688 140.765625 194.414062 C 140 193.652344 139.257812 192.871094 138.535156 192.074219 C 137.808594 191.273438 137.105469 190.457031 136.421875 189.625 C 135.738281 188.789062 135.074219 187.941406 134.433594 187.074219 C 133.789062 186.207031 133.167969 185.328125 132.570312 184.429688 C 131.96875 183.535156 131.394531 182.621094 130.839844 181.699219 C 130.285156 180.773438 129.753906 179.835938 129.246094 178.882812 C 128.738281 177.933594 128.253906 176.96875 127.792969 175.996094 C 127.332031 175.019531 126.894531 174.035156 126.480469 173.039062 C 126.066406 172.042969 125.679688 171.035156 125.316406 170.019531 C 124.953125 169.003906 124.613281 167.980469 124.300781 166.949219 C 123.988281 165.917969 123.703125 164.878906 123.441406 163.832031 C 123.175781 162.785156 122.941406 161.734375 122.730469 160.675781 C 122.519531 159.621094 122.335938 158.558594 122.179688 157.492188 C 122.019531 156.421875 121.886719 155.355469 121.78125 154.28125 C 121.675781 153.207031 121.597656 152.132812 121.542969 151.054688 C 121.492188 149.976562 121.464844 148.898438 121.464844 147.820312 C 121.464844 146.742188 121.492188 145.664062 121.542969 144.589844 C 121.597656 143.511719 121.675781 142.4375 121.78125 141.363281 C 121.886719 140.289062 122.019531 139.21875 122.179688 138.152344 C 122.335938 137.085938 122.519531 136.023438 122.730469 134.96875 C 122.941406 133.910156 123.175781 132.855469 123.441406 131.8125 C 123.703125 130.765625 123.988281 129.726562 124.300781 128.695312 C 124.613281 127.664062 124.953125 126.640625 125.316406 125.625 C 125.679688 124.609375 126.066406 123.601562 126.480469 122.605469 C 126.894531 121.609375 127.332031 120.625 127.792969 119.648438 C 128.253906 118.675781 128.738281 117.710938 129.246094 116.761719 C 129.753906 115.808594 130.285156 114.871094 130.839844 113.945312 C 131.394531 113.019531 131.96875 112.109375 132.570312 111.214844 C 133.167969 110.316406 133.789062 109.4375 134.433594 108.570312 C 135.074219 107.703125 135.738281 106.855469 136.421875 106.019531 C 137.105469 105.1875 137.808594 104.371094 138.535156 103.570312 C 139.257812 102.773438 140 101.992188 140.765625 101.230469 C 141.527344 100.464844 142.308594 99.722656 143.105469 99 C 143.90625 98.273438 144.722656 97.570312 145.554688 96.886719 C 146.390625 96.203125 147.238281 95.539062 148.105469 94.894531 C 148.972656 94.253906 149.851562 93.632812 150.75 93.035156 C 151.644531 92.433594 152.558594 91.859375 153.480469 91.304688 C 154.40625 90.75 155.34375 90.21875 156.296875 89.710938 C 157.246094 89.203125 158.210938 88.714844 159.183594 88.253906 C 160.160156 87.792969 161.144531 87.359375 162.140625 86.945312 C 163.136719 86.53125 164.144531 86.144531 165.160156 85.78125 C 166.175781 85.417969 167.199219 85.078125 168.230469 84.765625 C 169.261719 84.453125 170.300781 84.164062 171.347656 83.902344 C 172.394531 83.640625 173.445312 83.40625 174.503906 83.195312 C 175.558594 82.984375 176.621094 82.800781 177.6875 82.640625 C 178.757812 82.484375 179.824219 82.351562 180.898438 82.246094 C 181.972656 82.140625 183.046875 82.0625 184.125 82.007812 C 185.203125 81.957031 186.28125 81.929688 187.359375 81.929688 C 188.4375 81.929688 189.515625 81.957031 190.589844 82.007812 C 191.667969 82.0625 192.742188 82.140625 193.816406 82.246094 C 194.890625 82.351562 195.960938 82.484375 197.027344 82.640625 C 198.09375 82.800781 199.15625 82.984375 200.210938 83.195312 C 201.269531 83.40625 202.324219 83.640625 203.367188 83.902344 C 204.414062 84.164062 205.453125 84.453125 206.484375 84.765625 C 207.515625 85.078125 208.539062 85.417969 209.554688 85.78125 C 210.570312 86.144531 211.578125 86.53125 212.574219 86.945312 C 213.570312 87.359375 214.554688 87.792969 215.53125 88.253906 C 216.503906 88.714844 217.46875 89.203125 218.417969 89.710938 C 219.371094 90.21875 220.308594 90.75 221.234375 91.304688 C 222.160156 91.859375 223.070312 92.433594 223.964844 93.035156 C 224.863281 93.632812 225.742188 94.253906 226.609375 94.894531 C 227.476562 95.539062 228.324219 96.203125 229.160156 96.886719 C 229.992188 97.570312 230.808594 98.273438 231.609375 99 C 232.40625 99.722656 233.1875 100.464844 233.949219 101.230469 C 234.714844 101.992188 235.457031 102.773438 236.179688 103.570312 C 236.90625 104.371094 237.609375 105.1875 238.292969 106.019531 C 238.976562 106.855469 239.640625 107.703125 240.285156 108.570312 C 240.925781 109.4375 241.546875 110.316406 242.144531 111.214844 C 242.746094 112.109375 243.320312 113.019531 243.875 113.945312 C 244.429688 114.871094 244.960938 115.808594 245.46875 116.761719 C 245.976562 117.710938 246.464844 118.675781 246.925781 119.648438 C 247.386719 120.625 247.820312 121.609375 248.234375 122.605469 C 248.648438 123.601562 249.035156 124.609375 249.398438 125.625 C 249.761719 126.640625 250.101562 127.664062 250.414062 128.695312 C 250.726562 129.726562 251.015625 130.765625 251.277344 131.8125 C 251.539062 132.855469 251.773438 133.910156 251.984375 134.96875 C 252.195312 136.023438 252.378906 137.085938 252.539062 138.152344 C 252.695312 139.21875 252.828125 140.289062 252.933594 141.363281 C 253.039062 142.4375 253.117188 143.511719 253.171875 144.589844 C 253.222656 145.664062 253.25 146.742188 253.25 147.820312 Z M 253.25 147.820312 " fill-opacity="1" fill-rule="nonzero"/></svg>