<svg xmlns="http://www.w3.org/2000/svg" xmlns:xlink="http://www.w3.org/1999/xlink" width="500" zoomAndPan="magnify" viewBox="0 0 375 374.999991" height="500" preserveAspectRatio="xMidYMid meet" version="1.0"><defs><clipPath id="abafc085f3"><path d="M 342.347656 191.792969 L 370.980469 191.792969 L 370.980469 219 L 342.347656 219 Z M 342.347656 191.792969 " clip-rule="nonzero"/></clipPath><clipPath id="38ab5150e5"><path d="M 196.410156 337.734375 L 224 337.734375 L 224 366.367188 L 196.410156 366.367188 Z M 196.410156 337.734375 " clip-rule="nonzero"/></clipPath><clipPath id="fa58dce80e"><path d="M 152 337.734375 L 179 337.734375 L 179 366.367188 L 152 366.367188 Z M 152 337.734375 " clip-rule="nonzero"/></clipPath><clipPath id="f22468e9b6"><path d="M 4.230469 191 L 33 191 L 33 219 L 4.230469 219 Z M 4.230469 191 " clip-rule="nonzero"/></clipPath><clipPath id="9b0588a902"><path d="M 4.230469 147 L 33 147 L 33 175 L 4.230469 175 Z M 4.230469 147 " clip-rule="nonzero"/></clipPath><clipPath id="f1a9f722c9"><path d="M 342.347656 147.378906 L 370.980469 147.378906 L 370.980469 175 L 342.347656 175 Z M 342.347656 147.378906 " clip-rule="nonzero"/></clipPath></defs><path fill="#100f0d" d="M 344.722656 248.152344 C 336.21875 268.703125 323.605469 287.53125 307.878906 303.261719 C 292.148438 318.988281 273.316406 331.601562 252.765625 340.109375 C 232.226562 348.644531 209.992188 353.011719 187.746094 353.023438 C 165.503906 353.011719 143.269531 348.644531 122.726562 340.109375 C 102.175781 331.601562 83.347656 318.988281 67.621094 303.261719 C 51.894531 287.53125 39.277344 268.703125 30.773438 248.152344 C 22.238281 227.613281 17.867188 205.375 17.859375 183.132812 C 17.867188 160.890625 22.238281 138.652344 30.773438 118.113281 C 39.277344 97.566406 51.894531 78.734375 67.621094 63.003906 C 83.347656 47.277344 102.175781 34.664062 122.726562 26.15625 C 143.269531 17.621094 165.503906 13.253906 187.746094 13.242188 C 209.992188 13.253906 232.226562 17.621094 252.765625 26.15625 C 273.316406 34.664062 292.148438 47.277344 307.878906 63.003906 C 323.605469 78.734375 336.21875 97.566406 344.722656 118.113281 C 353.261719 138.652344 357.628906 160.890625 357.636719 183.132812 C 357.628906 205.375 353.261719 227.613281 344.722656 248.152344 Z M 345.902344 117.625 C 337.332031 96.921875 324.625 77.949219 308.777344 62.101562 C 292.929688 46.257812 273.960938 33.550781 253.253906 24.980469 C 232.558594 16.382812 210.152344 11.976562 187.746094 11.96875 C 165.339844 11.976562 142.933594 16.382812 122.242188 24.980469 C 101.535156 33.550781 82.5625 46.257812 66.71875 62.101562 C 50.875 77.949219 38.164062 96.921875 29.59375 117.625 C 20.996094 138.320312 16.59375 160.726562 16.585938 183.132812 C 16.59375 205.542969 20.996094 227.945312 29.59375 248.640625 C 38.164062 269.347656 50.875 288.320312 66.71875 304.164062 C 82.5625 320.007812 101.535156 332.71875 122.242188 341.285156 C 142.933594 349.886719 165.339844 354.289062 187.746094 354.296875 C 210.152344 354.289062 232.558594 349.886719 253.253906 341.285156 C 273.960938 332.71875 292.929688 320.007812 308.777344 304.164062 C 324.625 288.320312 337.332031 269.347656 345.902344 248.640625 C 354.5 227.945312 358.902344 205.542969 358.910156 183.132812 C 358.902344 160.726562 354.5 138.320312 345.902344 117.625 " fill-opacity="1" fill-rule="nonzero"/><g clip-path="url(#abafc085f3)"><path fill="#da1e25" d="M 358.054688 191.890625 C 356.558594 191.820312 355.203125 193.027344 353.824219 193.34375 C 352.394531 193.667969 350.597656 193.234375 349.378906 193.917969 C 348.144531 194.597656 347.800781 196.21875 346.871094 197.175781 C 345.9375 198.125 344.242188 198.640625 343.632812 199.789062 C 343.046875 200.894531 343.769531 202.382812 343.605469 203.667969 C 343.433594 204.957031 342.394531 206.21875 342.640625 207.429688 C 342.875 208.6875 344.4375 209.628906 345.089844 210.785156 C 345.75 211.949219 345.679688 213.601562 346.699219 214.582031 C 347.710938 215.550781 349.558594 215.59375 350.855469 216.277344 C 352.132812 216.9375 353.046875 218.4375 354.519531 218.753906 C 355.972656 219.070312 357.53125 218.058594 358.910156 217.90625 C 360.359375 217.75 362.085938 218.453125 363.375 217.859375 C 364.679688 217.253906 365.21875 215.484375 366.269531 214.476562 C 367.308594 213.480469 369.125 212.988281 369.820312 211.660156 C 370.472656 210.371094 369.753906 208.601562 369.957031 207.109375 C 370.144531 205.613281 371.25 204.082031 370.984375 202.675781 C 370.710938 201.214844 369.03125 200.269531 368.289062 199.042969 C 367.527344 197.796875 367.445312 195.949219 366.335938 195.027344 C 365.238281 194.125 363.386719 194.363281 362.023438 193.839844 C 360.707031 193.335938 359.550781 191.964844 358.054688 191.890625 " fill-opacity="1" fill-rule="nonzero"/></g><path fill="#193c2c" d="M 349.988281 235.671875 C 348.5625 235.210938 346.957031 236.035156 345.546875 235.984375 C 344.089844 235.929688 342.460938 235.042969 341.113281 235.386719 C 339.753906 235.726562 339.023438 237.207031 337.894531 237.894531 C 336.738281 238.566406 334.882812 238.585938 334.019531 239.542969 C 333.183594 240.46875 333.511719 242.101562 333.039062 243.308594 C 332.59375 244.527344 331.128906 245.417969 331.066406 246.660156 C 330.988281 247.941406 332.257812 249.261719 332.605469 250.554688 C 332.78125 251.207031 332.75 251.929688 332.769531 252.644531 C 332.773438 253.351562 332.800781 254.03125 333.15625 254.632812 C 333.855469 255.820312 335.636719 256.347656 336.703125 257.339844 C 337.730469 258.296875 338.269531 260.007812 339.601562 260.691406 C 340.929688 261.378906 342.652344 260.78125 344.050781 261.007812 C 345.503906 261.242188 346.980469 262.367188 348.40625 262.140625 C 349.117188 262.023438 349.753906 261.589844 350.335938 261.078125 C 350.90625 260.5625 351.460938 259.992188 352.089844 259.640625 C 353.335938 258.9375 355.207031 258.929688 356.210938 257.820312 C 357.15625 256.738281 357.0625 254.90625 357.585938 253.484375 C 358.140625 252.082031 359.585938 250.886719 359.679688 249.449219 C 359.773438 247.960938 358.480469 246.640625 358.085938 245.261719 C 357.664062 243.859375 358.046875 242.042969 357.203125 240.863281 C 356.367188 239.699219 354.519531 239.449219 353.335938 238.589844 C 352.191406 237.757812 351.414062 236.125 349.988281 235.671875 " fill-opacity="1" fill-rule="nonzero"/><path fill="#f5f6f5" d="M 330.835938 275.847656 C 329.578125 275.039062 327.832031 275.425781 326.492188 275.015625 C 325.105469 274.589844 323.753906 273.304688 322.378906 273.296875 C 321 273.285156 319.839844 274.480469 318.546875 274.835938 C 317.257812 275.1875 315.488281 274.746094 314.421875 275.457031 C 313.90625 275.804688 313.636719 276.402344 313.386719 277.03125 C 313.117188 277.652344 312.878906 278.316406 312.476562 278.828125 C 311.671875 279.847656 310.101562 280.386719 309.726562 281.574219 C 309.527344 282.191406 309.660156 282.902344 309.835938 283.628906 C 310.003906 284.347656 310.207031 285.074219 310.199219 285.730469 C 310.175781 287.066406 309.269531 288.445312 309.65625 289.796875 C 310.035156 291.140625 311.617188 292.105469 312.390625 293.34375 C 313.144531 294.539062 313.242188 296.351562 314.351562 297.355469 C 315.460938 298.359375 317.253906 298.214844 318.542969 298.789062 C 319.878906 299.382812 321.019531 300.859375 322.441406 300.996094 C 323.878906 301.132812 325.25 299.886719 326.671875 299.550781 C 327.375 299.378906 328.1875 299.425781 328.972656 299.402344 C 329.746094 299.371094 330.503906 299.277344 331.121094 298.863281 C 332.308594 298.058594 332.617188 296.203125 333.546875 295.019531 C 334.015625 294.421875 334.679688 293.941406 335.292969 293.433594 C 335.886719 292.914062 336.410156 292.367188 336.636719 291.679688 C 337.09375 290.253906 336.160156 288.628906 336.140625 287.195312 C 336.113281 285.742188 337.027344 284.136719 336.492188 282.765625 C 335.976562 281.417969 334.265625 280.699219 333.335938 279.554688 C 332.441406 278.453125 332.089844 276.660156 330.835938 275.847656 " fill-opacity="1" fill-rule="nonzero"/><path fill="#da1e25" d="M 301.96875 309.738281 C 300.960938 308.628906 299.152344 308.527344 297.957031 307.777344 C 296.71875 307 295.753906 305.421875 294.414062 305.039062 C 293.0625 304.65625 291.679688 305.5625 290.347656 305.585938 C 289.683594 305.59375 288.960938 305.390625 288.242188 305.21875 C 287.515625 305.042969 286.804688 304.917969 286.191406 305.113281 C 285 305.488281 284.460938 307.058594 283.441406 307.863281 C 282.933594 308.265625 282.265625 308.5 281.648438 308.769531 C 281.011719 309.023438 280.417969 309.292969 280.074219 309.804688 C 279.359375 310.871094 279.796875 312.648438 279.453125 313.933594 C 279.09375 315.222656 277.902344 316.390625 277.910156 317.765625 C 277.917969 319.140625 279.203125 320.492188 279.628906 321.878906 C 280.039062 323.21875 279.652344 324.960938 280.464844 326.21875 C 281.277344 327.476562 283.066406 327.828125 284.167969 328.722656 C 285.316406 329.648438 286.03125 331.363281 287.378906 331.878906 C 288.753906 332.410156 290.355469 331.496094 291.808594 331.527344 C 293.242188 331.546875 294.871094 332.476562 296.292969 332.023438 C 296.980469 331.800781 297.53125 331.269531 298.050781 330.679688 C 298.554688 330.066406 299.039062 329.398438 299.632812 328.933594 C 300.820312 328 302.675781 327.695312 303.476562 326.503906 C 303.890625 325.886719 303.984375 325.128906 304.015625 324.359375 C 304.039062 323.574219 303.996094 322.757812 304.164062 322.054688 C 304.5 320.632812 305.75 319.265625 305.609375 317.828125 C 305.472656 316.40625 303.996094 315.269531 303.402344 313.929688 C 302.828125 312.640625 302.976562 310.847656 301.96875 309.738281 " fill-opacity="1" fill-rule="nonzero"/><path fill="#193c2c" d="M 265.308594 334.984375 C 264.625 333.65625 262.914062 333.117188 261.957031 332.089844 C 260.960938 331.023438 260.433594 329.242188 259.246094 328.542969 C 258.644531 328.183594 257.960938 328.160156 257.253906 328.152344 C 256.542969 328.132812 255.816406 328.164062 255.167969 327.992188 C 253.875 327.644531 252.554688 326.375 251.277344 326.457031 C 250.035156 326.515625 249.144531 327.984375 247.921875 328.425781 C 246.714844 328.898438 245.078125 328.566406 244.160156 329.40625 C 243.203125 330.269531 243.175781 332.121094 242.507812 333.277344 C 241.820312 334.410156 240.34375 335.144531 240 336.5 C 239.65625 337.84375 240.542969 339.472656 240.597656 340.933594 C 240.648438 342.339844 239.828125 343.949219 240.285156 345.375 C 240.742188 346.796875 242.371094 347.578125 243.207031 348.722656 C 244.066406 349.910156 244.3125 351.753906 245.480469 352.589844 C 246.65625 353.429688 248.472656 353.046875 249.875 353.476562 C 251.253906 353.867188 252.574219 355.15625 254.066406 355.0625 C 255.5 354.972656 256.699219 353.523438 258.101562 352.96875 C 259.515625 352.445312 261.355469 352.546875 262.4375 351.59375 C 263.546875 350.59375 263.554688 348.722656 264.25 347.476562 C 264.609375 346.84375 265.179688 346.289062 265.691406 345.71875 C 266.203125 345.136719 266.640625 344.503906 266.757812 343.789062 C 266.984375 342.363281 265.855469 340.890625 265.625 339.4375 C 265.398438 338.035156 265.992188 336.316406 265.308594 334.984375 " fill-opacity="1" fill-rule="nonzero"/><g clip-path="url(#38ab5150e5)"><path fill="#f5f6f5" d="M 223.371094 349.90625 C 223.054688 348.433594 221.554688 347.515625 220.890625 346.242188 C 220.207031 344.941406 220.167969 343.097656 219.195312 342.085938 C 218.214844 341.0625 216.5625 341.132812 215.394531 340.476562 C 214.242188 339.820312 213.300781 338.257812 212.046875 338.027344 C 210.835938 337.78125 209.570312 338.816406 208.285156 338.992188 C 206.996094 339.15625 205.507812 338.433594 204.402344 339.019531 C 203.253906 339.625 202.738281 341.320312 201.792969 342.257812 C 200.832031 343.1875 199.214844 343.53125 198.53125 344.761719 C 197.851562 345.984375 198.285156 347.785156 197.957031 349.210938 C 197.644531 350.585938 196.433594 351.945312 196.503906 353.4375 C 196.578125 354.933594 197.949219 356.09375 198.453125 357.410156 C 198.976562 358.773438 198.738281 360.621094 199.644531 361.722656 C 200.5625 362.832031 202.414062 362.910156 203.65625 363.675781 C 204.882812 364.414062 205.832031 366.097656 207.289062 366.371094 C 208.695312 366.636719 210.226562 365.53125 211.722656 365.339844 C 213.21875 365.140625 214.988281 365.859375 216.273438 365.203125 C 217.601562 364.507812 218.097656 362.691406 219.089844 361.652344 C 220.097656 360.605469 221.871094 360.066406 222.476562 358.761719 C 223.070312 357.472656 222.363281 355.742188 222.519531 354.292969 C 222.671875 352.914062 223.683594 351.359375 223.371094 349.90625 " fill-opacity="1" fill-rule="nonzero"/></g><g clip-path="url(#fa58dce80e)"><path fill="#da1e25" d="M 178.992188 353.4375 C 179.0625 351.945312 177.855469 350.585938 177.539062 349.210938 C 177.214844 347.785156 177.648438 345.984375 176.964844 344.761719 C 176.28125 343.53125 174.664062 343.1875 173.703125 342.257812 C 172.757812 341.320312 172.242188 339.625 171.09375 339.019531 C 169.988281 338.433594 168.496094 339.15625 167.207031 338.992188 C 165.921875 338.816406 164.664062 337.78125 163.449219 338.027344 C 162.191406 338.257812 161.253906 339.820312 160.097656 340.476562 C 158.929688 341.132812 157.277344 341.0625 156.300781 342.085938 C 155.332031 343.097656 155.285156 344.941406 154.601562 346.242188 C 153.9375 347.515625 152.441406 348.433594 152.125 349.90625 C 151.8125 351.359375 152.824219 352.917969 152.976562 354.292969 C 153.132812 355.742188 152.425781 357.472656 153.023438 358.761719 C 153.625 360.066406 155.394531 360.605469 156.402344 361.652344 C 157.398438 362.695312 157.894531 364.507812 159.222656 365.203125 C 160.511719 365.859375 162.28125 365.140625 163.773438 365.339844 C 165.269531 365.53125 166.800781 366.636719 168.207031 366.371094 C 169.664062 366.097656 170.609375 364.414062 171.839844 363.675781 C 173.082031 362.910156 174.933594 362.832031 175.851562 361.722656 C 176.757812 360.621094 176.519531 358.773438 177.042969 357.410156 C 177.546875 356.09375 178.917969 354.933594 178.992188 353.4375 " fill-opacity="1" fill-rule="nonzero"/></g><path fill="#193c2c" d="M 135.210938 345.375 C 135.664062 343.949219 134.847656 342.339844 134.898438 340.933594 C 134.953125 339.472656 135.839844 337.84375 135.496094 336.5 C 135.15625 335.144531 133.671875 334.410156 132.984375 333.277344 C 132.316406 332.121094 132.292969 330.265625 131.335938 329.40625 C 130.414062 328.566406 128.78125 328.898438 127.574219 328.425781 C 126.351562 327.984375 125.464844 326.515625 124.222656 326.457031 C 122.9375 326.375 121.617188 327.640625 120.328125 327.992188 C 119.675781 328.164062 118.949219 328.132812 118.238281 328.152344 C 117.53125 328.160156 116.851562 328.183594 116.25 328.542969 C 115.058594 329.242188 114.53125 331.023438 113.542969 332.089844 C 112.585938 333.113281 110.875 333.65625 110.1875 334.984375 C 109.503906 336.316406 110.097656 338.035156 109.875 339.4375 C 109.636719 340.890625 108.511719 342.363281 108.738281 343.789062 C 108.855469 344.503906 109.292969 345.136719 109.800781 345.71875 C 110.316406 346.292969 110.890625 346.84375 111.242188 347.476562 C 111.941406 348.722656 111.949219 350.59375 113.0625 351.59375 C 114.144531 352.546875 115.976562 352.445312 117.394531 352.96875 C 118.800781 353.523438 119.996094 354.972656 121.433594 355.0625 C 122.917969 355.15625 124.242188 353.867188 125.617188 353.476562 C 127.023438 353.046875 128.835938 353.429688 130.019531 352.589844 C 131.183594 351.753906 131.429688 349.910156 132.292969 348.722656 C 133.121094 347.578125 134.753906 346.796875 135.210938 345.375 " fill-opacity="1" fill-rule="nonzero"/><path fill="#f5f6f5" d="M 95.03125 326.21875 C 95.839844 324.960938 95.457031 323.21875 95.867188 321.878906 C 96.292969 320.488281 97.578125 319.140625 97.585938 317.765625 C 97.59375 316.390625 96.402344 315.222656 96.046875 313.933594 C 95.695312 312.648438 96.136719 310.871094 95.421875 309.804688 C 95.078125 309.292969 94.480469 309.023438 93.847656 308.769531 C 93.230469 308.5 92.5625 308.265625 92.054688 307.863281 C 91.03125 307.058594 90.496094 305.488281 89.308594 305.113281 C 88.6875 304.917969 87.976562 305.042969 87.25 305.21875 C 86.535156 305.390625 85.808594 305.59375 85.148438 305.585938 C 83.816406 305.5625 82.433594 304.65625 81.082031 305.039062 C 79.742188 305.421875 78.777344 307 77.539062 307.777344 C 76.339844 308.527344 74.53125 308.628906 73.523438 309.738281 C 72.519531 310.847656 72.667969 312.640625 72.09375 313.929688 C 71.5 315.269531 70.023438 316.40625 69.882812 317.828125 C 69.75 319.265625 70.996094 320.632812 71.332031 322.054688 C 71.5 322.757812 71.457031 323.574219 71.480469 324.359375 C 71.515625 325.128906 71.605469 325.886719 72.019531 326.503906 C 72.820312 327.695312 74.675781 328 75.863281 328.933594 C 76.457031 329.398438 76.941406 330.066406 77.449219 330.679688 C 77.964844 331.269531 78.515625 331.800781 79.199219 332.019531 C 80.625 332.476562 82.253906 331.546875 83.6875 331.527344 C 85.140625 331.496094 86.746094 332.410156 88.117188 331.878906 C 89.464844 331.363281 90.179688 329.648438 91.324219 328.722656 C 92.429688 327.828125 94.21875 327.476562 95.03125 326.21875 " fill-opacity="1" fill-rule="nonzero"/><path fill="#da1e25" d="M 61.144531 297.355469 C 62.25 296.351562 62.351562 294.539062 63.101562 293.34375 C 63.878906 292.105469 65.460938 291.140625 65.839844 289.796875 C 66.226562 288.445312 65.316406 287.066406 65.296875 285.730469 C 65.285156 285.074219 65.492188 284.347656 65.660156 283.628906 C 65.839844 282.902344 65.964844 282.191406 65.769531 281.574219 C 65.394531 280.386719 63.820312 279.847656 63.019531 278.828125 C 62.617188 278.316406 62.378906 277.652344 62.109375 277.03125 C 61.859375 276.398438 61.589844 275.804688 61.074219 275.457031 C 60.011719 274.746094 58.234375 275.1875 56.945312 274.835938 C 55.65625 274.480469 54.492188 273.285156 53.113281 273.296875 C 51.738281 273.304688 50.394531 274.589844 49.003906 275.015625 C 47.664062 275.425781 45.917969 275.039062 44.660156 275.847656 C 43.402344 276.660156 43.054688 278.453125 42.160156 279.554688 C 41.230469 280.699219 39.519531 281.417969 39 282.765625 C 38.472656 284.136719 39.386719 285.742188 39.355469 287.195312 C 39.332031 288.628906 38.402344 290.253906 38.859375 291.679688 C 39.082031 292.367188 39.609375 292.914062 40.199219 293.433594 C 40.8125 293.941406 41.480469 294.421875 41.949219 295.019531 C 42.878906 296.203125 43.1875 298.058594 44.375 298.863281 C 44.992188 299.277344 45.75 299.367188 46.523438 299.402344 C 47.308594 299.425781 48.121094 299.378906 48.824219 299.550781 C 50.246094 299.886719 51.617188 301.132812 53.054688 300.996094 C 54.476562 300.859375 55.613281 299.382812 56.953125 298.789062 C 58.242188 298.214844 60.035156 298.359375 61.144531 297.355469 " fill-opacity="1" fill-rule="nonzero"/><path fill="#193c2c" d="M 35.898438 260.691406 C 37.226562 260.007812 37.765625 258.296875 38.792969 257.339844 C 39.855469 256.347656 41.640625 255.820312 42.339844 254.632812 C 42.699219 254.03125 42.722656 253.351562 42.730469 252.644531 C 42.746094 251.925781 42.714844 251.207031 42.890625 250.550781 C 43.238281 249.261719 44.507812 247.941406 44.425781 246.660156 C 44.363281 245.417969 42.898438 244.527344 42.457031 243.308594 C 41.980469 242.101562 42.3125 240.46875 41.476562 239.542969 C 40.613281 238.585938 38.761719 238.5625 37.605469 237.894531 C 36.46875 237.207031 35.738281 235.726562 34.382812 235.382812 C 33.035156 235.042969 31.40625 235.929688 29.949219 235.984375 C 28.539062 236.035156 26.929688 235.210938 25.507812 235.671875 C 24.082031 236.125 23.304688 237.757812 22.160156 238.589844 C 20.972656 239.449219 19.128906 239.699219 18.292969 240.863281 C 17.449219 242.042969 17.835938 243.859375 17.40625 245.261719 C 17.015625 246.640625 15.722656 247.960938 15.8125 249.449219 C 15.910156 250.886719 17.355469 252.082031 17.910156 253.484375 C 18.433594 254.902344 18.335938 256.738281 19.289062 257.820312 C 20.289062 258.929688 22.160156 258.9375 23.40625 259.640625 C 24.035156 259.992188 24.589844 260.5625 25.160156 261.078125 C 25.746094 261.589844 26.375 262.023438 27.09375 262.140625 C 28.515625 262.367188 29.992188 261.242188 31.445312 261.007812 C 32.84375 260.78125 34.566406 261.378906 35.898438 260.691406 " fill-opacity="1" fill-rule="nonzero"/><g clip-path="url(#f22468e9b6)"><path fill="#f5f6f5" d="M 20.976562 218.753906 C 22.449219 218.4375 23.363281 216.9375 24.636719 216.277344 C 25.9375 215.59375 27.785156 215.550781 28.796875 214.578125 C 29.816406 213.601562 29.742188 211.949219 30.40625 210.785156 C 31.0625 209.628906 32.621094 208.6875 32.855469 207.429688 C 33.097656 206.21875 32.0625 204.957031 31.886719 203.667969 C 31.726562 202.382812 32.449219 200.894531 31.863281 199.789062 C 31.257812 198.640625 29.5625 198.125 28.625 197.175781 C 27.691406 196.21875 27.351562 194.597656 26.117188 193.917969 C 24.898438 193.234375 23.097656 193.667969 21.671875 193.34375 C 20.292969 193.027344 18.9375 191.820312 17.445312 191.890625 C 15.949219 191.960938 14.789062 193.335938 13.472656 193.839844 C 12.109375 194.363281 10.257812 194.125 9.160156 195.027344 C 8.046875 195.949219 7.96875 197.796875 7.203125 199.042969 C 6.464844 200.269531 4.785156 201.214844 4.507812 202.675781 C 4.246094 204.082031 5.347656 205.613281 5.539062 207.109375 C 5.742188 208.601562 5.023438 210.371094 5.675781 211.65625 C 6.375 212.988281 8.191406 213.480469 9.226562 214.476562 C 10.273438 215.484375 10.816406 217.253906 12.117188 217.859375 C 13.410156 218.453125 15.140625 217.75 16.589844 217.90625 C 17.964844 218.058594 19.523438 219.070312 20.976562 218.753906 " fill-opacity="1" fill-rule="nonzero"/></g><g clip-path="url(#9b0588a902)"><path fill="#da1e25" d="M 17.445312 174.375 C 18.9375 174.449219 20.292969 173.238281 21.671875 172.921875 C 23.097656 172.597656 24.898438 173.03125 26.117188 172.351562 C 27.351562 171.667969 27.691406 170.046875 28.625 169.089844 C 29.5625 168.140625 31.257812 167.625 31.863281 166.480469 C 32.449219 165.371094 31.726562 163.882812 31.886719 162.597656 C 32.0625 161.308594 33.097656 160.046875 32.855469 158.835938 C 32.621094 157.582031 31.0625 156.640625 30.40625 155.484375 C 29.742188 154.316406 29.816406 152.664062 28.796875 151.683594 C 27.785156 150.714844 25.9375 150.671875 24.636719 149.988281 C 23.363281 149.328125 22.449219 147.828125 20.976562 147.507812 C 19.523438 147.199219 17.964844 148.207031 16.589844 148.363281 C 15.140625 148.519531 13.410156 147.8125 12.117188 148.40625 C 10.816406 149.011719 10.273438 150.78125 9.226562 151.789062 C 8.1875 152.785156 6.375 153.28125 5.675781 154.609375 C 5.023438 155.894531 5.742188 157.664062 5.539062 159.15625 C 5.347656 160.65625 4.246094 162.183594 4.507812 163.59375 C 4.785156 165.050781 6.464844 165.996094 7.207031 167.226562 C 7.96875 168.46875 8.046875 170.316406 9.160156 171.238281 C 10.257812 172.140625 12.109375 171.902344 13.472656 172.425781 C 14.789062 172.933594 15.949219 174.304688 17.445312 174.375 " fill-opacity="1" fill-rule="nonzero"/></g><path fill="#193c2c" d="M 25.507812 130.59375 C 26.929688 131.054688 28.542969 130.234375 29.949219 130.285156 C 31.40625 130.339844 33.039062 131.222656 34.382812 130.882812 C 35.738281 130.539062 36.46875 129.058594 37.605469 128.371094 C 38.761719 127.703125 40.617188 127.679688 41.476562 126.71875 C 42.3125 125.800781 41.980469 124.167969 42.457031 122.957031 C 42.898438 121.738281 44.363281 120.847656 44.425781 119.605469 C 44.507812 118.328125 43.238281 117.007812 42.890625 115.710938 C 42.714844 115.0625 42.746094 114.339844 42.730469 113.625 C 42.722656 112.917969 42.699219 112.234375 42.339844 111.632812 C 41.640625 110.445312 39.855469 109.917969 38.792969 108.925781 C 37.769531 107.96875 37.226562 106.257812 35.898438 105.574219 C 34.566406 104.890625 32.84375 105.484375 31.445312 105.257812 C 29.992188 105.027344 28.515625 103.898438 27.09375 104.125 C 26.375 104.242188 25.746094 104.679688 25.160156 105.191406 C 24.589844 105.703125 24.035156 106.273438 23.40625 106.628906 C 22.160156 107.328125 20.289062 107.335938 19.289062 108.445312 C 18.335938 109.527344 18.433594 111.363281 17.910156 112.78125 C 17.355469 114.183594 15.910156 115.382812 15.816406 116.816406 C 15.722656 118.304688 17.015625 119.628906 17.40625 121.003906 C 17.835938 122.40625 17.449219 124.226562 18.292969 125.402344 C 19.128906 126.566406 20.972656 126.816406 22.160156 127.675781 C 23.304688 128.507812 24.082031 130.140625 25.507812 130.59375 " fill-opacity="1" fill-rule="nonzero"/><path fill="#f5f6f5" d="M 44.660156 90.417969 C 45.917969 91.230469 47.664062 90.84375 49.003906 91.25 C 50.394531 91.679688 51.742188 92.960938 53.117188 92.972656 C 54.492188 92.980469 55.65625 91.785156 56.945312 91.429688 C 58.234375 91.082031 60.011719 91.519531 61.074219 90.808594 C 61.589844 90.460938 61.859375 89.867188 62.109375 89.234375 C 62.378906 88.613281 62.617188 87.949219 63.019531 87.441406 C 63.820312 86.417969 65.394531 85.882812 65.769531 84.691406 C 65.964844 84.074219 65.839844 83.363281 65.660156 82.632812 C 65.492188 81.917969 65.285156 81.195312 65.296875 80.535156 C 65.320312 79.203125 66.226562 77.820312 65.839844 76.46875 C 65.464844 75.128906 63.878906 74.160156 63.101562 72.921875 C 62.351562 71.726562 62.25 69.917969 61.144531 68.914062 C 60.035156 67.90625 58.242188 68.050781 56.953125 67.476562 C 55.613281 66.882812 54.476562 65.410156 53.054688 65.269531 C 51.617188 65.132812 50.246094 66.382812 48.824219 66.714844 C 48.121094 66.886719 47.308594 66.839844 46.523438 66.863281 C 45.75 66.898438 44.992188 66.988281 44.375 67.402344 C 43.1875 68.207031 42.878906 70.0625 41.949219 71.25 C 41.480469 71.84375 40.8125 72.328125 40.203125 72.832031 C 39.609375 73.351562 39.082031 73.902344 38.863281 74.585938 C 38.402344 76.011719 39.332031 77.636719 39.355469 79.070312 C 39.386719 80.523438 38.472656 82.128906 39 83.503906 C 39.519531 84.851562 41.230469 85.566406 42.160156 86.710938 C 43.058594 87.816406 43.402344 89.605469 44.660156 90.417969 " fill-opacity="1" fill-rule="nonzero"/><path fill="#da1e25" d="M 73.527344 56.527344 C 74.53125 57.636719 76.339844 57.738281 77.539062 58.488281 C 78.777344 59.265625 79.742188 60.847656 81.082031 61.226562 C 82.433594 61.613281 83.816406 60.707031 85.148438 60.679688 C 85.808594 60.671875 86.535156 60.875 87.25 61.046875 C 87.976562 61.222656 88.691406 61.351562 89.308594 61.15625 C 90.496094 60.78125 91.03125 59.207031 92.054688 58.402344 C 92.5625 58 93.230469 57.765625 93.847656 57.496094 C 94.480469 57.246094 95.078125 56.976562 95.421875 56.457031 C 96.136719 55.394531 95.695312 53.621094 96.046875 52.332031 C 96.402344 51.042969 97.59375 49.878906 97.585938 48.5 C 97.578125 47.125 96.292969 45.777344 95.867188 44.390625 C 95.457031 43.046875 95.84375 41.304688 95.03125 40.046875 C 94.222656 38.789062 92.429688 38.441406 91.324219 37.542969 C 90.179688 36.617188 89.464844 34.902344 88.117188 34.386719 C 86.746094 33.855469 85.140625 34.769531 83.6875 34.738281 C 82.253906 34.71875 80.625 33.789062 79.199219 34.246094 C 78.515625 34.464844 77.964844 34.996094 77.449219 35.589844 C 76.941406 36.199219 76.457031 36.863281 75.863281 37.332031 C 74.675781 38.265625 72.820312 38.570312 72.019531 39.761719 C 71.605469 40.378906 71.515625 41.136719 71.480469 41.910156 C 71.457031 42.695312 71.5 43.507812 71.332031 44.210938 C 70.996094 45.632812 69.75 47.003906 69.882812 48.441406 C 70.023438 49.863281 71.5 51 72.09375 52.335938 C 72.667969 53.625 72.519531 55.417969 73.527344 56.527344 " fill-opacity="1" fill-rule="nonzero"/><path fill="#193c2c" d="M 110.1875 31.28125 C 110.875 32.609375 112.585938 33.152344 113.542969 34.179688 C 114.53125 35.242188 115.058594 37.027344 116.25 37.722656 C 116.851562 38.082031 117.53125 38.105469 118.238281 38.113281 C 118.949219 38.132812 119.675781 38.101562 120.328125 38.277344 C 121.621094 38.625 122.9375 39.894531 124.222656 39.8125 C 125.464844 39.753906 126.351562 38.285156 127.574219 37.839844 C 128.78125 37.367188 130.414062 37.699219 131.335938 36.863281 C 132.296875 36 132.320312 34.144531 132.984375 32.988281 C 133.671875 31.855469 135.15625 31.125 135.496094 29.765625 C 135.839844 28.421875 134.953125 26.792969 134.898438 25.332031 C 134.847656 23.925781 135.664062 22.316406 135.210938 20.894531 C 134.753906 19.46875 133.121094 18.6875 132.292969 17.542969 C 131.429688 16.359375 131.183594 14.515625 130.019531 13.675781 C 128.835938 12.835938 127.023438 13.21875 125.617188 12.792969 C 124.242188 12.402344 122.917969 11.109375 121.433594 11.203125 C 119.996094 11.296875 118.800781 12.742188 117.394531 13.296875 C 115.976562 13.820312 114.144531 13.722656 113.0625 14.671875 C 111.949219 15.671875 111.941406 17.542969 111.242188 18.789062 C 110.890625 19.421875 110.316406 19.972656 109.800781 20.546875 C 109.292969 21.128906 108.855469 21.761719 108.738281 22.476562 C 108.511719 23.902344 109.640625 25.375 109.875 26.828125 C 110.097656 28.230469 109.503906 29.949219 110.1875 31.28125 " fill-opacity="1" fill-rule="nonzero"/><path fill="#f5f6f5" d="M 152.125 16.359375 C 152.441406 17.835938 153.9375 18.75 154.605469 20.027344 C 155.285156 21.324219 155.332031 23.171875 156.300781 24.183594 C 157.277344 25.203125 158.933594 25.132812 160.097656 25.792969 C 161.253906 26.445312 162.195312 28.003906 163.449219 28.238281 C 164.664062 28.488281 165.921875 27.449219 167.207031 27.277344 C 168.496094 27.113281 169.988281 27.832031 171.09375 27.246094 C 172.242188 26.640625 172.757812 24.945312 173.707031 24.011719 C 174.664062 23.078125 176.28125 22.738281 176.964844 21.503906 C 177.648438 20.28125 177.214844 18.484375 177.539062 17.058594 C 177.855469 15.679688 179.0625 14.320312 178.992188 12.828125 C 178.921875 11.332031 177.546875 10.171875 177.042969 8.855469 C 176.519531 7.492188 176.757812 5.644531 175.851562 4.542969 C 174.933594 3.433594 173.082031 3.355469 171.839844 2.59375 C 170.609375 1.851562 169.664062 0.167969 168.207031 -0.101562 C 166.800781 -0.371094 165.269531 0.734375 163.773438 0.925781 C 162.28125 1.125 160.511719 0.40625 159.222656 1.0625 C 157.894531 1.757812 157.398438 3.574219 156.402344 4.613281 C 155.394531 5.664062 153.625 6.203125 153.023438 7.507812 C 152.425781 8.792969 153.132812 10.523438 152.976562 11.972656 C 152.824219 13.351562 151.8125 14.90625 152.125 16.359375 " fill-opacity="1" fill-rule="nonzero"/><path fill="#da1e25" d="M 196.503906 12.828125 C 196.433594 14.320312 197.644531 15.679688 197.957031 17.058594 C 198.285156 18.484375 197.851562 20.28125 198.53125 21.503906 C 199.214844 22.738281 200.832031 23.078125 201.792969 24.011719 C 202.738281 24.945312 203.257812 26.640625 204.402344 27.246094 C 205.507812 27.832031 206.996094 27.113281 208.285156 27.277344 C 209.574219 27.449219 210.835938 28.488281 212.046875 28.238281 C 213.300781 28.003906 214.242188 26.445312 215.398438 25.792969 C 216.5625 25.132812 218.21875 25.203125 219.195312 24.179688 C 220.167969 23.171875 220.210938 21.324219 220.890625 20.023438 C 221.554688 18.75 223.054688 17.835938 223.371094 16.359375 C 223.683594 14.90625 222.671875 13.351562 222.519531 11.972656 C 222.363281 10.523438 223.070312 8.792969 222.476562 7.507812 C 221.871094 6.203125 220.097656 5.660156 219.089844 4.613281 C 218.097656 3.574219 217.601562 1.757812 216.273438 1.0625 C 214.988281 0.40625 213.21875 1.125 211.722656 0.925781 C 210.226562 0.734375 208.695312 -0.371094 207.289062 -0.101562 C 205.832031 0.167969 204.882812 1.851562 203.65625 2.59375 C 202.414062 3.355469 200.5625 3.433594 199.644531 4.542969 C 198.738281 5.644531 198.976562 7.492188 198.453125 8.855469 C 197.949219 10.171875 196.578125 11.332031 196.503906 12.828125 " fill-opacity="1" fill-rule="nonzero"/><path fill="#193c2c" d="M 240.285156 20.894531 C 239.828125 22.320312 240.648438 23.925781 240.597656 25.332031 C 240.542969 26.792969 239.65625 28.421875 240 29.765625 C 240.34375 31.125 241.824219 31.855469 242.507812 32.988281 C 243.175781 34.144531 243.203125 36 244.160156 36.863281 C 245.078125 37.699219 246.714844 37.371094 247.921875 37.839844 C 249.144531 38.285156 250.035156 39.753906 251.277344 39.8125 C 252.554688 39.894531 253.875 38.625 255.167969 38.277344 C 255.820312 38.101562 256.542969 38.132812 257.257812 38.113281 C 257.964844 38.105469 258.648438 38.082031 259.246094 37.722656 C 260.433594 37.027344 260.964844 35.242188 261.957031 34.179688 C 262.914062 33.152344 264.625 32.609375 265.308594 31.28125 C 265.992188 29.949219 265.398438 28.230469 265.625 26.828125 C 265.855469 25.375 266.984375 23.902344 266.757812 22.476562 C 266.640625 21.761719 266.203125 21.128906 265.691406 20.546875 C 265.179688 19.972656 264.609375 19.421875 264.253906 18.789062 C 263.554688 17.542969 263.546875 15.671875 262.4375 14.671875 C 261.355469 13.722656 259.515625 13.820312 258.101562 13.296875 C 256.699219 12.742188 255.5 11.296875 254.066406 11.203125 C 252.574219 11.109375 251.253906 12.402344 249.875 12.792969 C 248.472656 13.21875 246.65625 12.835938 245.480469 13.675781 C 244.3125 14.515625 244.066406 16.359375 243.207031 17.542969 C 242.371094 18.6875 240.742188 19.46875 240.285156 20.894531 " fill-opacity="1" fill-rule="nonzero"/><path fill="#f5f6f5" d="M 280.464844 40.046875 C 279.652344 41.304688 280.039062 43.046875 279.632812 44.390625 C 279.203125 45.777344 277.917969 47.125 277.910156 48.5 C 277.902344 49.878906 279.09375 51.042969 279.453125 52.335938 C 279.796875 53.621094 279.363281 55.394531 280.074219 56.460938 C 280.421875 56.976562 281.011719 57.246094 281.648438 57.496094 C 282.265625 57.765625 282.933594 58.003906 283.441406 58.402344 C 284.460938 59.207031 285 60.78125 286.191406 61.15625 C 286.804688 61.351562 287.519531 61.222656 288.242188 61.046875 C 288.960938 60.878906 289.6875 60.671875 290.347656 60.679688 C 291.679688 60.707031 293.0625 61.613281 294.414062 61.226562 C 295.753906 60.847656 296.722656 59.265625 297.960938 58.488281 C 299.15625 57.738281 300.964844 57.636719 301.96875 56.527344 C 302.976562 55.417969 302.832031 53.625 303.402344 52.335938 C 304 51 305.472656 49.863281 305.609375 48.441406 C 305.75 47.003906 304.5 45.632812 304.164062 44.210938 C 303.996094 43.507812 304.042969 42.695312 304.015625 41.910156 C 303.984375 41.136719 303.894531 40.378906 303.476562 39.761719 C 302.675781 38.570312 300.820312 38.265625 299.632812 37.332031 C 299.039062 36.867188 298.554688 36.199219 298.050781 35.589844 C 297.53125 34.996094 296.980469 34.464844 296.292969 34.246094 C 294.871094 33.789062 293.242188 34.71875 291.808594 34.738281 C 290.355469 34.769531 288.753906 33.855469 287.378906 34.386719 C 286.03125 34.90625 285.316406 36.617188 284.167969 37.546875 C 283.066406 38.441406 281.277344 38.789062 280.464844 40.046875 " fill-opacity="1" fill-rule="nonzero"/><path fill="#da1e25" d="M 314.351562 68.914062 C 313.242188 69.917969 313.144531 71.726562 312.390625 72.921875 C 311.617188 74.160156 310.035156 75.128906 309.65625 76.46875 C 309.269531 77.820312 310.175781 79.203125 310.199219 80.535156 C 310.210938 81.195312 310.003906 81.917969 309.835938 82.636719 C 309.660156 83.363281 309.53125 84.074219 309.726562 84.691406 C 310.101562 85.882812 311.675781 86.421875 312.476562 87.441406 C 312.878906 87.949219 313.117188 88.613281 313.386719 89.234375 C 313.636719 89.867188 313.90625 90.464844 314.421875 90.808594 C 315.488281 91.519531 317.257812 91.082031 318.546875 91.429688 C 319.839844 91.785156 321.003906 92.980469 322.378906 92.972656 C 323.753906 92.960938 325.105469 91.679688 326.492188 91.253906 C 327.832031 90.84375 329.578125 91.230469 330.835938 90.417969 C 332.09375 89.605469 332.441406 87.816406 333.335938 86.710938 C 334.265625 85.566406 335.976562 84.851562 336.492188 83.503906 C 337.027344 82.128906 336.113281 80.523438 336.140625 79.070312 C 336.164062 77.636719 337.09375 76.011719 336.636719 74.585938 C 336.410156 73.902344 335.886719 73.351562 335.292969 72.832031 C 334.679688 72.328125 334.015625 71.84375 333.550781 71.25 C 332.617188 70.0625 332.308594 68.207031 331.121094 67.402344 C 330.503906 66.988281 329.746094 66.898438 328.972656 66.863281 C 328.1875 66.839844 327.375 66.886719 326.671875 66.71875 C 325.25 66.382812 323.878906 65.132812 322.441406 65.273438 C 321.019531 65.410156 319.878906 66.882812 318.542969 67.476562 C 317.253906 68.054688 315.460938 67.90625 314.351562 68.914062 " fill-opacity="1" fill-rule="nonzero"/><path fill="#193c2c" d="M 339.601562 105.574219 C 338.269531 106.257812 337.730469 107.96875 336.703125 108.925781 C 335.636719 109.917969 333.855469 110.449219 333.15625 111.632812 C 332.800781 112.238281 332.773438 112.917969 332.769531 113.625 C 332.75 114.339844 332.78125 115.0625 332.605469 115.714844 C 332.257812 117.007812 330.988281 118.328125 331.066406 119.605469 C 331.128906 120.847656 332.59375 121.738281 333.039062 122.957031 C 333.511719 124.167969 333.183594 125.800781 334.019531 126.722656 C 334.882812 127.679688 336.738281 127.703125 337.894531 128.375 C 339.027344 129.0625 339.753906 130.539062 341.113281 130.882812 C 342.460938 131.226562 344.089844 130.339844 345.546875 130.285156 C 346.957031 130.234375 348.5625 131.054688 349.988281 130.59375 C 351.414062 130.140625 352.191406 128.507812 353.335938 127.675781 C 354.523438 126.816406 356.367188 126.566406 357.203125 125.402344 C 358.046875 124.226562 357.664062 122.40625 358.085938 121.003906 C 358.480469 119.628906 359.773438 118.304688 359.679688 116.816406 C 359.585938 115.382812 358.140625 114.183594 357.585938 112.78125 C 357.0625 111.363281 357.15625 109.527344 356.210938 108.445312 C 355.207031 107.335938 353.335938 107.328125 352.089844 106.628906 C 351.460938 106.273438 350.90625 105.703125 350.332031 105.191406 C 349.753906 104.679688 349.117188 104.242188 348.40625 104.125 C 346.980469 103.898438 345.503906 105.027344 344.050781 105.257812 C 342.652344 105.484375 340.933594 104.890625 339.601562 105.574219 " fill-opacity="1" fill-rule="nonzero"/><g clip-path="url(#f1a9f722c9)"><path fill="#f5f6f5" d="M 354.519531 147.511719 C 353.046875 147.828125 352.132812 149.328125 350.855469 149.988281 C 349.558594 150.675781 347.710938 150.714844 346.699219 151.6875 C 345.679688 152.664062 345.75 154.316406 345.089844 155.484375 C 344.4375 156.640625 342.875 157.582031 342.640625 158.835938 C 342.394531 160.046875 343.433594 161.308594 343.605469 162.597656 C 343.769531 163.886719 343.046875 165.371094 343.632812 166.480469 C 344.242188 167.628906 345.9375 168.140625 346.871094 169.089844 C 347.804688 170.046875 348.144531 171.667969 349.378906 172.351562 C 350.597656 173.03125 352.394531 172.597656 353.824219 172.921875 C 355.203125 173.238281 356.558594 174.449219 358.054688 174.375 C 359.550781 174.304688 360.707031 172.933594 362.023438 172.425781 C 363.386719 171.902344 365.238281 172.140625 366.335938 171.238281 C 367.445312 170.316406 367.527344 168.46875 368.289062 167.226562 C 369.03125 165.996094 370.710938 165.050781 370.984375 163.59375 C 371.25 162.183594 370.144531 160.65625 369.957031 159.15625 C 369.753906 157.664062 370.472656 155.894531 369.820312 154.609375 C 369.125 153.28125 367.308594 152.785156 366.269531 151.789062 C 365.21875 150.78125 364.679688 149.011719 363.375 148.40625 C 362.085938 147.8125 360.359375 148.519531 358.910156 148.363281 C 357.53125 148.207031 355.972656 147.199219 354.519531 147.511719 " fill-opacity="1" fill-rule="nonzero"/></g></svg>